<svg xmlns="http://www.w3.org/2000/svg" xmlns:xlink="http://www.w3.org/1999/xlink" width="24.271" height="24.271" viewBox="0 0 24.271 24.271">
  <defs>
    <linearGradient id="linear-gradient" x1="0.966" y1="0.966" x2="0.034" y2="0.034" gradientUnits="objectBoundingBox">
      <stop offset="0" stop-color="#438a00"/>
      <stop offset="1" stop-color="#7cd400"/>
    </linearGradient>
    <linearGradient id="linear-gradient-2" x1="0.986" y1="0.986" x2="0.014" y2="0.014" gradientUnits="objectBoundingBox">
      <stop offset="0" stop-color="#65ba09"/>
      <stop offset="1" stop-color="#8ce30b"/>
    </linearGradient>
    <radialGradient id="radial-gradient" cx="0.063" cy="-0.466" r="10.079" gradientTransform="translate(0.453) scale(0.094 1)" gradientUnits="objectBoundingBox">
      <stop offset="0" stop-color="#47b009"/>
      <stop offset="1" stop-color="#010d01"/>
    </radialGradient>
    <radialGradient id="radial-gradient-2" cx="0.065" cy="-0.305" r="10.363" gradientTransform="translate(0.453) scale(0.094 1)" gradientUnits="objectBoundingBox">
      <stop offset="0" stop-color="#fff"/>
      <stop offset="1" stop-color="#91d600"/>
    </radialGradient>
    <radialGradient id="radial-gradient-3" cx="-1.316" cy="0.026" r="1.238" gradientTransform="translate(-4.802) scale(10.603 1)" xlink:href="#radial-gradient"/>
    <linearGradient id="linear-gradient-3" x1="0" y1="0.5" x2="1" y2="0.5" gradientTransform="matrix(1, 0, 0, 1, 0, 0)" xlink:href="#radial-gradient-2"/>
    <radialGradient id="radial-gradient-4" cx="0.583" cy="6.221" r="21.959" gradientTransform="translate(0.48) scale(0.039 1)" xlink:href="#radial-gradient"/>
    <linearGradient id="linear-gradient-4" x1="0.688" y1="0.825" x2="0.101" y2="-0.117" gradientUnits="objectBoundingBox">
      <stop offset="0" stop-color="#010d01"/>
      <stop offset="1" stop-color="#47b009"/>
    </linearGradient>
    <linearGradient id="linear-gradient-5" x1="0.5" y1="1" x2="0.5" y2="0" xlink:href="#linear-gradient-4"/>
    <radialGradient id="radial-gradient-5" cx="0.088" cy="-0.057" r="1.494" gradientTransform="translate(0.182) scale(0.636 1)" xlink:href="#radial-gradient"/>
    <linearGradient id="linear-gradient-6" x1="0.994" y1="0.994" x2="0.006" y2="0.006" gradientUnits="objectBoundingBox">
      <stop offset="0" stop-color="#7ade00"/>
      <stop offset="1" stop-color="#c8ff75"/>
    </linearGradient>
    <linearGradient id="linear-gradient-7" x1="0.5" y1="1" x2="0.5" gradientUnits="objectBoundingBox">
      <stop offset="0" stop-color="#86c700"/>
      <stop offset="1" stop-color="#4f8002"/>
    </linearGradient>
    <linearGradient id="linear-gradient-8" x1="0.5" y1="1" x2="0.5" gradientUnits="objectBoundingBox">
      <stop offset="0" stop-color="#fff"/>
      <stop offset="1" stop-color="#65993d"/>
    </linearGradient>
    <radialGradient id="radial-gradient-6" cx="0.491" cy="4.795" r="6.141" gradientTransform="translate(0.426) scale(0.149 1)" xlink:href="#radial-gradient"/>
    <linearGradient id="linear-gradient-9" x1="0.148" y1="-0.274" x2="0.148" y2="-1.444" gradientUnits="objectBoundingBox">
      <stop offset="0" stop-color="#6bad02"/>
      <stop offset="1" stop-color="#92cc17"/>
    </linearGradient>
    <radialGradient id="radial-gradient-7" cx="0.809" cy="0.611" r="0.978" gradientTransform="matrix(1.145, 0.5, -0.661, 0.866, -0.623, -0.343)" gradientUnits="objectBoundingBox">
      <stop offset="0" stop-color="#76aa07"/>
      <stop offset="0.067" stop-color="#78ab0b"/>
      <stop offset="0.142" stop-color="#80b019"/>
      <stop offset="0.222" stop-color="#8cb72f"/>
      <stop offset="0.304" stop-color="#9dc24f"/>
      <stop offset="0.388" stop-color="#b4d077"/>
      <stop offset="0.474" stop-color="#cfe1a9"/>
      <stop offset="0.56" stop-color="#eff5e3"/>
      <stop offset="0.599" stop-color="#fff"/>
    </radialGradient>
    <radialGradient id="radial-gradient-8" cx="0.616" cy="1.131" r="1.776" gradientTransform="matrix(0.5, 0.5, -0.289, 0.866, -0.899, -0.392)" gradientUnits="objectBoundingBox">
      <stop offset="0.312"/>
      <stop offset="1" stop-color="#c9fc10"/>
    </radialGradient>
    <radialGradient id="radial-gradient-9" cx="1.114" cy="-0.122" r="2.763" gradientTransform="matrix(0.454, 0.5, -0.262, 0.866, -2.23, -0.996)" gradientUnits="objectBoundingBox">
      <stop offset="0" stop-color="#5bb500"/>
      <stop offset="0.133" stop-color="#58b000"/>
      <stop offset="0.283" stop-color="#51a200"/>
      <stop offset="0.44" stop-color="#468c00"/>
      <stop offset="0.603" stop-color="#366c00"/>
      <stop offset="0.771" stop-color="#240"/>
      <stop offset="0.939" stop-color="#091300"/>
      <stop offset="1"/>
    </radialGradient>
    <radialGradient id="radial-gradient-10" cx="1.004" cy="-0.258" r="2.469" gradientTransform="matrix(0.391, 0.5, -0.226, 0.866, -1.614, -1.128)" xlink:href="#radial-gradient-9"/>
    <radialGradient id="radial-gradient-11" cx="0.981" cy="0.127" r="1.27" gradientTransform="matrix(0.853, 0.5, -0.493, 0.866, -0.918, -0.486)" gradientUnits="objectBoundingBox">
      <stop offset="0.381" stop-color="#fff"/>
      <stop offset="0.576" stop-color="#c4e5c2"/>
      <stop offset="1" stop-color="#3aaa35"/>
    </radialGradient>
    <radialGradient id="radial-gradient-12" cx="-0.55" cy="-0.16" r="1.132" gradientTransform="matrix(2.2, 0.5, -1.27, 0.866, 0.042, 0.977)" gradientUnits="objectBoundingBox">
      <stop offset="0" stop-color="#a4b500"/>
      <stop offset="0.133" stop-color="#9fb000"/>
      <stop offset="0.283" stop-color="#93a200"/>
      <stop offset="0.44" stop-color="#7f8c00"/>
      <stop offset="0.603" stop-color="#626c00"/>
      <stop offset="0.771" stop-color="#3d4400"/>
      <stop offset="0.939" stop-color="#111300"/>
      <stop offset="1"/>
    </radialGradient>
    <radialGradient id="radial-gradient-13" cx="0.761" cy="0.118" r="1.245" gradientTransform="matrix(1.246, 0.5, -0.719, 0.866, -0.913, -0.184)" gradientUnits="objectBoundingBox">
      <stop offset="0" stop-color="#a6db70"/>
      <stop offset="1" stop-color="#77b300"/>
    </radialGradient>
  </defs>
  <g id="Group_1239" data-name="Group 1239" transform="translate(0 0)">
    <g id="Group_1218" data-name="Group 1218" transform="translate(0 0)">
      <path id="Path_2570" data-name="Path 2570" d="M26.066,24.836H44.65a2.849,2.849,0,0,1,2.844,2.844V46.263a2.849,2.849,0,0,1-2.844,2.844H26.066a2.849,2.849,0,0,1-2.844-2.844V27.68a2.849,2.849,0,0,1,2.844-2.844Z" transform="translate(-23.222 -24.836)" fill-rule="evenodd" fill="url(#linear-gradient)"/>
      <path id="Path_2571" data-name="Path 2571" d="M29.416,30.02a1.014,1.014,0,0,0-1.009,1.009V49.613a1.014,1.014,0,0,0,1.009,1.009H48a1.014,1.014,0,0,0,1.009-1.009V31.029A1.014,1.014,0,0,0,48,30.02Z" transform="translate(-26.572 -28.186)" fill-rule="evenodd" fill="url(#linear-gradient-2)"/>
      <path id="Path_2572" data-name="Path 2572" d="M27.59,26.67H46.174a1,1,0,0,1,.712.3l1.3-1.3a2.835,2.835,0,0,0-2.009-.834H27.59a2.835,2.835,0,0,0-2.009.834l1.3,1.3a1.006,1.006,0,0,1,.712-.3Z" transform="translate(-24.746 -24.836)" fill-rule="evenodd" fill="url(#radial-gradient)" style="mix-blend-mode: screen;isolation: isolate"/>
      <path id="Path_2573" data-name="Path 2573" d="M46.174,87.7H27.59a1.006,1.006,0,0,1-.712-.3l-1.3,1.3a2.835,2.835,0,0,0,2.009.834H46.174a2.835,2.835,0,0,0,2.009-.834l-1.3-1.3a1,1,0,0,1-.712.3Z" transform="translate(-24.746 -65.263)" fill-rule="evenodd" fill="url(#radial-gradient-2)" style="mix-blend-mode: multiply;isolation: isolate"/>
      <path id="Path_2574" data-name="Path 2574" d="M25.057,47.787V29.2a1.006,1.006,0,0,1,.3-.712l-1.3-1.3a2.835,2.835,0,0,0-.835,2.009V47.787a2.835,2.835,0,0,0,.835,2.009l1.3-1.3a1.006,1.006,0,0,1-.3-.712Z" transform="translate(-23.222 -26.36)" fill-rule="evenodd" fill="url(#radial-gradient-3)" style="mix-blend-mode: screen;isolation: isolate"/>
      <path id="Path_2575" data-name="Path 2575" d="M86.086,29.2V47.787a1,1,0,0,1-.3.712l1.3,1.3a2.835,2.835,0,0,0,.834-2.009V29.2a2.835,2.835,0,0,0-.834-2.009l-1.3,1.3a1,1,0,0,1,.3.712Z" transform="translate(-63.649 -26.36)" fill-rule="evenodd" fill="url(#linear-gradient-3)" style="mix-blend-mode: multiply;isolation: isolate"/>
      <path id="Path_2576" data-name="Path 2576" d="M41.318,89.568c-4.9,0-8.872-.354-8.872-.533s7.316-.161,8.872-.161,8.872-.018,8.872.161-3.972.533-8.872.533Z" transform="translate(-29.182 -66.213)" fill-rule="evenodd" fill="url(#radial-gradient-4)" style="mix-blend-mode: screen;isolation: isolate"/>
      <path id="Path_2577" data-name="Path 2577" d="M28.407,42.856a191.844,191.844,0,0,1,20.6-8.661V31.029A1.014,1.014,0,0,0,48,30.02H29.416a1.014,1.014,0,0,0-1.009,1.009V42.856Z" transform="translate(-26.572 -28.186)" fill-rule="evenodd" opacity="0.65" fill="url(#linear-gradient-4)" style="mix-blend-mode: screen;isolation: isolate"/>
      <path id="Path_2578" data-name="Path 2578" d="M25.057,41.03V29.2a1.006,1.006,0,0,1,.3-.712l-1.3-1.3a2.835,2.835,0,0,0-.835,2.009V41.8a4.235,4.235,0,0,1,1.835-.771Z" transform="translate(-23.222 -26.36)" fill-rule="evenodd" fill="url(#linear-gradient-5)" style="mix-blend-mode: screen;isolation: isolate"/>
      <path id="Path_2579" data-name="Path 2579" d="M45.152,25.613H26.569A2.575,2.575,0,0,0,24,28.182V40.056a.642.642,0,0,0,1.284,0V28.182A1.289,1.289,0,0,1,26.569,26.9H45.152a1.289,1.289,0,0,1,1.284,1.284v2.776a.642.642,0,0,0,1.284,0V28.182a2.574,2.574,0,0,0-2.568-2.569Z" transform="translate(-23.725 -25.338)" fill-rule="evenodd" fill="url(#radial-gradient-5)" style="mix-blend-mode: screen;isolation: isolate"/>
      <path id="Path_2580" data-name="Path 2580" d="M40.022,28.529a70.847,70.847,0,0,0-7.576.253c0,.085,6.247.076,7.576.076s7.577.008,7.577-.076a70.851,70.851,0,0,0-7.577-.253Z" transform="translate(-29.182 -27.222)" fill="#eeffc5" fill-rule="evenodd" style="mix-blend-mode: screen;isolation: isolate"/>
      <path id="Path_2581" data-name="Path 2581" d="M74.322,87.527a5.023,5.023,0,0,0-1.977.253,7.72,7.72,0,0,0,1.977.141A7.719,7.719,0,0,0,76.3,87.78a5.022,5.022,0,0,0-1.976-.253Z" transform="translate(-54.963 -65.344)" fill="#d2ff83" fill-rule="evenodd"/>
      <path id="Path_2582" data-name="Path 2582" d="M66.155,87.69a2.667,2.667,0,0,0-1.252.2,7.264,7.264,0,0,0,2.5,0,2.667,2.667,0,0,0-1.252-.2Z" transform="translate(-50.154 -65.449)" fill="#d2ff83" fill-rule="evenodd"/>
      <path id="Path_2583" data-name="Path 2583" d="M25.524,87.618a3.065,3.065,0,0,1,.7-.734.928.928,0,0,1,.472-.142,1.021,1.021,0,0,1-.569-.684,1.021,1.021,0,0,1-.109.634,3.044,3.044,0,0,1-.7.734.672.672,0,0,1-.486.1,2.87,2.87,0,0,0,.624.609.687.687,0,0,1,.069-.517Z" transform="translate(-24.262 -64.394)" fill="#8fe561" fill-rule="evenodd" style="mix-blend-mode: multiply;isolation: isolate"/>
      <path id="Path_2584" data-name="Path 2584" d="M86.11,87.618a3.051,3.051,0,0,0-.7-.734.926.926,0,0,0-.472-.142,1.019,1.019,0,0,0,.569-.684,1.024,1.024,0,0,0,.109.634,3.058,3.058,0,0,0,.7.734.673.673,0,0,0,.486.1,2.869,2.869,0,0,1-.623.609.686.686,0,0,0-.069-.517Z" transform="translate(-63.101 -64.394)" fill="#8fe561" fill-rule="evenodd" style="mix-blend-mode: multiply;isolation: isolate"/>
      <path id="Path_2585" data-name="Path 2585" d="M25.524,26.851a3.07,3.07,0,0,0,.7.734.928.928,0,0,0,.472.142,1.021,1.021,0,0,0-.569.684,1.021,1.021,0,0,0-.109-.634,3.044,3.044,0,0,0-.7-.734.672.672,0,0,0-.486-.1,2.87,2.87,0,0,1,.624-.609.688.688,0,0,0,.069.517Z" transform="translate(-24.262 -25.804)" fill="#8fe561" fill-rule="evenodd" style="mix-blend-mode: screen;isolation: isolate"/>
      <path id="Path_2586" data-name="Path 2586" d="M86.11,26.851a3.056,3.056,0,0,1-.7.734.925.925,0,0,1-.472.142,1.019,1.019,0,0,1,.569.684,1.024,1.024,0,0,1,.109-.634,3.058,3.058,0,0,1,.7-.734.673.673,0,0,1,.486-.1,2.868,2.868,0,0,0-.623-.609.687.687,0,0,1-.069.517Z" transform="translate(-63.101 -25.804)" fill="#8fe561" fill-rule="evenodd" style="mix-blend-mode: screen;isolation: isolate"/>
      <g id="Group_1217" data-name="Group 1217" transform="translate(2.477 2.477)">
        <path id="Path_2587" data-name="Path 2587" d="M30.589,31.835H49.173a.372.372,0,0,1,.367.367V50.786a.372.372,0,0,1-.367.367H30.589a.371.371,0,0,1-.367-.367V32.2a.372.372,0,0,1,.367-.367Z" transform="translate(-30.222 -31.835)" fill-rule="evenodd" fill="url(#linear-gradient-6)"/>
        <path id="Path_2588" data-name="Path 2588" d="M30.756,32.094a.28.28,0,0,0-.275.275V50.953a.28.28,0,0,0,.275.275H49.34a.28.28,0,0,0,.275-.275V32.369a.28.28,0,0,0-.275-.275Z" transform="translate(-30.389 -32.002)" fill-rule="evenodd" fill="url(#linear-gradient-7)"/>
        <path id="Path_2589" data-name="Path 2589" d="M30.481,36c.439-1.27,1-2.086,1.849-2.332,1.991-.578,5.48-.491,7.718-.491s5.727-.087,7.718.491c.849.247,1.41,1.062,1.849,2.332V32.369a.28.28,0,0,0-.275-.275H30.756a.28.28,0,0,0-.275.275V36Z" transform="translate(-30.389 -32.002)" fill-rule="evenodd" opacity="0.5" fill="url(#linear-gradient-8)" style="mix-blend-mode: multiply;isolation: isolate"/>
        <path id="Path_2590" data-name="Path 2590" d="M41.124,80.06c-2.816,0-8.978.066-8.978-.663s4.019-2,8.978-2,8.978,1.276,8.978,2-6.162.663-8.978.663Z" transform="translate(-31.465 -61.271)" fill-rule="evenodd" fill="url(#radial-gradient-6)" style="mix-blend-mode: screen;isolation: isolate"/>
      </g>
    </g>
    <g id="Group_1220" data-name="Group 1220" transform="translate(6.204 4.502)">
      <path id="Path_2591" data-name="Path 2591" d="M44.4,50.506a5.334,5.334,0,0,1,.4-3.153,11.475,11.475,0,0,1,3.257-4.29,5.481,5.481,0,0,0-.185,1.893,8.447,8.447,0,0,1,.807-2.32l.137-.083c1.908-1.126,5.59-2.058,7.058-2.921a43.355,43.355,0,0,0-.567,5.424c-.024.277-.052.559-.085.844-.292.141-.63.275-.9.4-.3.145-.145.308.125.366a1.807,1.807,0,0,0,.674,0c-.444,3.173-1.484,6.48-4.211,7.395-1.476.495-2.869-.091-4.331.832-.323-1.166-1.932-2.9-2.179-4.394Z" transform="translate(-43.057 -38.898)" fill="#008d36" fill-rule="evenodd" opacity="0.4" style="mix-blend-mode: multiply;isolation: isolate"/>
      <g id="Group_1219" data-name="Group 1219">
        <path id="Path_2592" data-name="Path 2592" d="M40.834,48.431a5.33,5.33,0,0,1,.4-3.152,11.474,11.474,0,0,1,3.257-4.29,5.481,5.481,0,0,0-.185,1.893,8.431,8.431,0,0,1,.807-2.32l.137-.083c1.908-1.126,5.59-2.058,7.058-2.921a43.355,43.355,0,0,0-.567,5.424c-.024.277-.052.559-.085.844-.292.142-.63.275-.9.4-.3.145-.145.308.125.366a1.8,1.8,0,0,0,.674,0c-.444,3.172-1.484,6.48-4.211,7.395-1.476.495-2.869-.091-4.331.832-.323-1.166-1.932-2.9-2.179-4.394Z" transform="translate(-40.755 -37.558)" fill-rule="evenodd" fill="url(#linear-gradient-9)"/>
        <path id="Path_2593" data-name="Path 2593" d="M45.162,46.948c1.893-3.7,4.407-6.316,7.141-9.39-1.468.863-5.15,1.795-7.058,2.921l-.137.083a8.431,8.431,0,0,0-.807,2.32,5.481,5.481,0,0,1,.185-1.893,11.474,11.474,0,0,0-3.257,4.29,5.33,5.33,0,0,0-.4,3.152c.247,1.5,1.856,3.228,2.179,4.394a32.671,32.671,0,0,1,2.149-5.878Z" transform="translate(-40.755 -37.558)" fill-rule="evenodd" fill="url(#radial-gradient-7)" style="mix-blend-mode: multiply;isolation: isolate"/>
        <path id="Path_2594" data-name="Path 2594" d="M54.116,39.231c1-.282,2-.418,2.361-.027.478.526.464,2.186.412,3.4a37.482,37.482,0,0,1,.535-5.048c-1.468.863-5.15,1.795-7.058,2.921l-.137.082c-.053.1-.107.209-.16.323a17.718,17.718,0,0,1,4.046-1.653Zm-4.508,1.757a8.378,8.378,0,0,0-.927.819q.422-.324.873-.61c.016-.069.034-.138.054-.209Z" transform="translate(-45.876 -37.558)" fill-rule="evenodd" fill="url(#radial-gradient-8)" style="mix-blend-mode: screen;isolation: isolate"/>
        <path id="Path_2595" data-name="Path 2595" d="M56.765,52.637a10.505,10.505,0,0,0,5.255-1.11q.034-.318.061-.63c.032-.363.059-.726.085-1.088a7.988,7.988,0,0,1-4.8,1.954q-.314.43-.6.875Z" transform="translate(-51.1 -45.474)" fill-rule="evenodd" opacity="0.6" fill="url(#radial-gradient-9)" style="mix-blend-mode: screen;isolation: isolate"/>
        <path id="Path_2596" data-name="Path 2596" d="M58.59,59.528a12.564,12.564,0,0,1-5.306-.271,27.05,27.05,0,0,0-1.418,2.8c1.888.646,4.609-.159,6.381-.978.137-.507.249-1.027.343-1.551Z" transform="translate(-47.934 -51.579)" fill-rule="evenodd" fill="url(#radial-gradient-10)" style="mix-blend-mode: screen;isolation: isolate"/>
        <path id="Path_2597" data-name="Path 2597" d="M49.06,57.441c-3.765,3.07-9.232-.659-5.95-6.482a14.028,14.028,0,0,0-1.88,2.979,5.33,5.33,0,0,0-.4,3.152c.247,1.5,1.856,3.228,2.179,4.394,1.462-.922,2.855-.337,4.331-.832,2.516-.843,3.6-3.724,4.1-6.656a6.576,6.576,0,0,1-2.38,3.444Z" transform="translate(-40.755 -46.217)" fill-rule="evenodd" fill="url(#radial-gradient-11)" style="mix-blend-mode: multiply;isolation: isolate"/>
        <path id="Path_2598" data-name="Path 2598" d="M45.608,50.217A9.346,9.346,0,0,0,47.483,55.5c.119-.267.241-.533.369-.8a9.463,9.463,0,0,1-1.51-5.3,9.659,9.659,0,0,0-.734.827Zm1.692,5.7a9.792,9.792,0,0,1-2.151-4.048,1.089,1.089,0,0,0-.182.557,6.457,6.457,0,0,0,2,4.3c.111-.275.222-.542.335-.8Z" transform="translate(-43.476 -45.203)" fill-rule="evenodd" opacity="0.5" fill="url(#radial-gradient-12)" style="mix-blend-mode: screen;isolation: isolate"/>
        <path id="Path_2599" data-name="Path 2599" d="M54.013,37.558a60.992,60.992,0,0,0-5,6.181A8.226,8.226,0,0,0,53.2,42.187a7.768,7.768,0,0,1-4.4,1.862A29.987,29.987,0,0,0,46.592,48c1.433.59,4.5-.184,5.838-.775-1.166.793-4.469,1.681-5.98,1.088-.429.965-.78,2.051-1.257,3.378a8.565,8.565,0,0,1-.469,1.131,14.98,14.98,0,0,1,.754-2.913.761.761,0,0,0-.16-.772A6.979,6.979,0,0,1,43.4,44.858a8.014,8.014,0,0,0,2.321,4.377c.148-.394.3-.786.458-1.167q.316-.775.675-1.485a.48.48,0,0,0-.007-.452,6.9,6.9,0,0,1-.77-4.677,7.742,7.742,0,0,0,1.065,4.577A22.835,22.835,0,0,1,49.2,42.91a1.071,1.071,0,0,0,.23-.593,6.316,6.316,0,0,1,.752-2.857,9.4,9.4,0,0,0-.519,2.867c1.31-1.609,2.788-3.109,4.353-4.769Z" transform="translate(-42.465 -37.558)" fill-rule="evenodd" fill="url(#radial-gradient-13)"/>
      </g>
    </g>
  </g>
</svg>
