<svg id="Group_1253" data-name="Group 1253" xmlns="http://www.w3.org/2000/svg" xmlns:xlink="http://www.w3.org/1999/xlink" width="25.067" height="41.143" viewBox="0 0 25.067 41.143">
  <defs>
    <radialGradient id="radial-gradient" cx="-0.466" cy="0.038" r="2.866" gradientTransform="matrix(0.455, -0.5, 0.263, 0.866, -0.362, -0.033)" gradientUnits="objectBoundingBox">
      <stop offset="0" stop-color="#fff"/>
      <stop offset="1" stop-color="#5e689e"/>
    </radialGradient>
    <radialGradient id="radial-gradient-2" cx="0.359" cy="0.402" r="0.789" gradientTransform="translate(-0.014) scale(1.027 1)" gradientUnits="objectBoundingBox">
      <stop offset="0" stop-color="#00aeff"/>
      <stop offset="0.661" stop-color="#003f7a"/>
      <stop offset="0.888" stop-color="#00abfa"/>
    </radialGradient>
    <radialGradient id="radial-gradient-3" cx="0.072" cy="0.263" r="1.159" gradientTransform="translate(-0.117) scale(1.235 1)" gradientUnits="objectBoundingBox">
      <stop offset="0" stop-color="#1de4e7"/>
      <stop offset="1"/>
    </radialGradient>
    <radialGradient id="radial-gradient-4" cx="0.316" cy="0.237" r="0.812" gradientTransform="translate(-0.021) scale(1.041 1)" xlink:href="#radial-gradient-3"/>
    <radialGradient id="radial-gradient-5" cx="0.34" cy="0.123" r="1.099" gradientTransform="translate(0.002)" xlink:href="#radial-gradient-3"/>
    <linearGradient id="linear-gradient" y1="0.5" x2="1" y2="0.5" gradientUnits="objectBoundingBox">
      <stop offset="0" stop-color="#4fc7ff"/>
      <stop offset="1" stop-color="#0064b0"/>
    </linearGradient>
    <linearGradient id="linear-gradient-2" y1="0.5" x2="1" y2="0.5" gradientUnits="objectBoundingBox">
      <stop offset="0" stop-color="#007fe7"/>
      <stop offset="1"/>
    </linearGradient>
    <linearGradient id="linear-gradient-3" y1="0.5" x2="1" y2="0.5" gradientUnits="objectBoundingBox">
      <stop offset="0" stop-color="#00a9e7"/>
      <stop offset="1"/>
    </linearGradient>
    <radialGradient id="radial-gradient-6" cx="0.207" cy="0.28" r="1.474" gradientTransform="matrix(1.035, -0.5, 0.597, 0.866, -0.386, 0.38)" gradientUnits="objectBoundingBox">
      <stop offset="0" stop-color="#ccf0ef"/>
      <stop offset="1" stop-color="#5e73e6"/>
    </radialGradient>
    <linearGradient id="linear-gradient-4" x1="1.997" y1="2.131" x2="2.468" y2="4.281" gradientUnits="objectBoundingBox">
      <stop offset="0" stop-color="#fff"/>
      <stop offset="1"/>
    </linearGradient>
    <radialGradient id="radial-gradient-7" cx="-0.938" cy="0.254" r="1.761" gradientTransform="matrix(1.078, -0.5, 0.622, 0.866, -1.108, 0.853)" xlink:href="#linear-gradient-4"/>
    <radialGradient id="radial-gradient-8" cx="-0.556" cy="0.298" r="1.433" gradientTransform="matrix(1.494, -0.5, 0.863, 0.866, -4.416, 2.368)" xlink:href="#linear-gradient-4"/>
    <radialGradient id="radial-gradient-9" cx="1.426" cy="0.634" r="1.201" gradientTransform="matrix(1.574, -0.5, 0.909, 0.866, -2.353, 1.08)" gradientUnits="objectBoundingBox">
      <stop offset="0.37"/>
      <stop offset="1" stop-color="#fff"/>
    </radialGradient>
    <radialGradient id="radial-gradient-10" cx="1.398" cy="0.595" r="1.377" gradientTransform="matrix(1.819, -0.5, 1.05, 0.866, -3.141, 1.177)" gradientUnits="objectBoundingBox">
      <stop offset="0"/>
      <stop offset="1" stop-color="#fff"/>
    </radialGradient>
    <radialGradient id="radial-gradient-11" cx="-0.501" cy="0.357" r="1.46" gradientTransform="matrix(2.038, -0.5, 1.177, 0.866, -13.348, 4.634)" xlink:href="#linear-gradient-4"/>
    <radialGradient id="radial-gradient-12" cx="0.062" cy="-0.061" r="3.068" gradientTransform="matrix(0.378, -0.5, 0.219, 0.866, 0.348, 1.04)" gradientUnits="objectBoundingBox">
      <stop offset="0" stop-color="#ccf0ef"/>
      <stop offset="1" stop-color="#364e82"/>
    </radialGradient>
    <linearGradient id="linear-gradient-5" x1="-0.065" y1="5.31" x2="0.816" y2="9.014" xlink:href="#linear-gradient-4"/>
    <radialGradient id="radial-gradient-13" cx="0.969" cy="0.444" r="1.201" gradientTransform="matrix(0.851, -0.5, 0.492, 0.866, -1.086, 2.286)" xlink:href="#radial-gradient-10"/>
    <radialGradient id="radial-gradient-14" cx="-0.005" cy="0.443" r="5.051" gradientTransform="matrix(0.279, -0.5, 0.161, 0.866, 0.388, 1.23)" gradientUnits="objectBoundingBox">
      <stop offset="0" stop-color="#f2ffff"/>
      <stop offset="1" stop-color="#6a79c2"/>
    </radialGradient>
    <radialGradient id="radial-gradient-15" cx="0.089" cy="0.213" r="1.318" gradientTransform="matrix(0.658, -0.5, 0.38, 0.866, -0.198, 1.552)" gradientUnits="objectBoundingBox">
      <stop offset="0" stop-color="#ca9e67"/>
      <stop offset="1"/>
    </radialGradient>
    <radialGradient id="radial-gradient-16" cx="0.032" cy="0.042" r="1.123" gradientTransform="matrix(1.195, -0.5, 0.69, 0.866, -2.984, 2.91)" xlink:href="#radial-gradient-15"/>
    <linearGradient id="linear-gradient-6" x1="10.329" y1="9.366" x2="9.568" y2="8.648" gradientUnits="objectBoundingBox">
      <stop offset="0" stop-color="#b07a38"/>
      <stop offset="1" stop-color="#704824"/>
    </linearGradient>
    <linearGradient id="linear-gradient-7" x1="10.849" y1="10.051" x2="10.158" y2="9.462" xlink:href="#linear-gradient-6"/>
    <radialGradient id="radial-gradient-17" cx="-0.037" cy="-0.706" r="3.456" gradientTransform="matrix(0.299, -0.5, 0.172, 0.866, 1.049, 2.093)" xlink:href="#radial-gradient-15"/>
    <linearGradient id="linear-gradient-8" x1="7.205" y1="19.127" x2="8.026" y2="19.127" gradientUnits="objectBoundingBox">
      <stop offset="0" stop-color="#6b4e35"/>
      <stop offset="1" stop-color="#87643a"/>
    </linearGradient>
    <linearGradient id="linear-gradient-9" x1="9.524" y1="23.287" x2="10.352" y2="23.287" xlink:href="#linear-gradient-8"/>
    <linearGradient id="linear-gradient-10" x1="8.292" y1="21.083" x2="9.101" y2="21.083" xlink:href="#linear-gradient-8"/>
    <linearGradient id="linear-gradient-11" x1="10.455" y1="11.905" x2="9.734" y2="10.953" xlink:href="#linear-gradient-6"/>
  </defs>
  <path id="Path_2730" data-name="Path 2730" d="M341.55,90.7c3.58,0,6.482,1.525,6.483,3.406s-2.9,3.406-6.483,3.407-6.482-1.525-6.482-3.407,2.9-3.406,6.483-3.406Z" transform="translate(-329.016 -56.366)" fill-rule="evenodd" fill="url(#radial-gradient)"/>
  <path id="Path_2731" data-name="Path 2731" d="M335.125,51.213,335.1,52.8c-.043,2.21.143,1.514-.722,3.616a6.9,6.9,0,0,1-2.217,2.862c-3.069,2.6-5.445,5.728-5.445,9.919a9.912,9.912,0,0,0,1.264,4.84,12,12,0,0,0,20.528,0,9.9,9.9,0,0,0,1.264-4.84c0-4.19-2.376-7.324-5.445-9.919a6.9,6.9,0,0,1-2.217-2.862c-.865-2.1-.678-1.405-.721-3.616l-.021-1.591a13.83,13.83,0,0,1-6.246,0Z" transform="translate(-325.715 -40.751)" fill="#fff" fill-rule="evenodd" opacity="0.15"/>
  <g id="Group_1251" data-name="Group 1251" transform="translate(1.005 15.387)">
    <path id="Path_2732" data-name="Path 2732" d="M334.5,59.359l-.117.282a6.9,6.9,0,0,1-2.217,2.862c-3.068,2.6-5.445,5.729-5.445,9.919a9.912,9.912,0,0,0,1.264,4.84,12,12,0,0,0,20.528,0,9.9,9.9,0,0,0,1.264-4.84c0-4.19-2.376-7.324-5.445-9.919a6.9,6.9,0,0,1-2.217-2.862L342,59.359Z" transform="translate(-326.72 -59.359)" fill-rule="evenodd" fill="url(#radial-gradient-2)"/>
    <path id="Path_2733" data-name="Path 2733" d="M357.2,79.035a9.635,9.635,0,0,1-8.848,11.058A19.738,19.738,0,0,0,357.2,79.035Z" transform="translate(-335.273 -67.141)" fill-rule="evenodd" fill="url(#radial-gradient-3)" style="mix-blend-mode: screen;isolation: isolate"/>
    <path id="Path_2734" data-name="Path 2734" d="M334.383,59.641a6.9,6.9,0,0,1-2.217,2.862c-3.068,2.6-5.445,5.729-5.445,9.919a9.859,9.859,0,0,0,.057,1.063,8.919,8.919,0,0,0,.765,1.861,10.349,10.349,0,0,0,9.129,5.162,10.525,10.525,0,0,0,9.2-5.162,8.9,8.9,0,0,0,1.16-4.322,9.617,9.617,0,0,0-3.816-7.716c-1.364-1.138-2.724-2.126-3.048-3.949H334.5l-.117.282Z" transform="translate(-326.72 -59.359)" fill-rule="evenodd" fill="url(#radial-gradient-4)" style="mix-blend-mode: screen;isolation: isolate"/>
    <path id="Path_2735" data-name="Path 2735" d="M336.786,65.208a6.557,6.557,0,0,1,6.639,7.37,8.326,8.326,0,0,1-8.1,7.371,6.557,6.557,0,0,1-6.639-7.371,8.326,8.326,0,0,1,8.1-7.37Z" transform="translate(-327.482 -61.672)" fill-rule="evenodd" fill="url(#radial-gradient-5)" style="mix-blend-mode: screen;isolation: isolate"/>
  </g>
  <g id="Group_1252" data-name="Group 1252" transform="translate(9.011 14.253)">
    <path id="Path_2736" data-name="Path 2736" d="M343.486,57.484c1.945,0,3.522.507,3.522,1.133s-1.577,1.134-3.522,1.134-3.522-.508-3.522-1.134,1.577-1.133,3.522-1.133Z" transform="translate(-339.964 -57.484)" fill-rule="evenodd" fill="url(#linear-gradient)"/>
    <path id="Path_2737" data-name="Path 2737" d="M345.82,58.938a4.747,4.747,0,0,0-3.11-.771,6.774,6.774,0,0,0-2.642.445.449.449,0,0,0-.1.276.354.354,0,0,0,0,.051c.082.6,1.626,1.083,3.519,1.083a10,10,0,0,0,1.6-.123c.521-.184.84-.429.84-.7a.415.415,0,0,0-.1-.263Z" transform="translate(-339.964 -57.754)" fill-rule="evenodd" fill="url(#linear-gradient-2)" style="mix-blend-mode: screen;isolation: isolate"/>
    <path id="Path_2738" data-name="Path 2738" d="M345.076,59.415c0-.512-1.289-.927-2.878-.927a6.6,6.6,0,0,0-2.176.32.415.415,0,0,0-.058.207.354.354,0,0,0,0,.051c.082.6,1.626,1.083,3.519,1.083.175,0,.347,0,.515-.012.655-.17,1.074-.43,1.074-.722Z" transform="translate(-339.964 -57.881)" fill-rule="evenodd" fill="url(#linear-gradient-3)" style="mix-blend-mode: screen;isolation: isolate"/>
  </g>
  <path id="Path_2739" data-name="Path 2739" d="M348.043,95.89c0,1.7-2.917,3.073-6.515,3.073s-6.516-1.376-6.516-3.073c2.573,1.629,8.884,2.2,13.031,0Z" transform="translate(-328.994 -58.42)" fill="#5accc9" fill-rule="evenodd" style="mix-blend-mode: multiply;isolation: isolate"/>
  <path id="Path_2740" data-name="Path 2740" d="M341.739,52.563l-.028-1.911a5.718,5.718,0,0,1-.54.206c-.192.062-.389.118-.59.167l.019,1.56c.056,2.9.684,4.632,2.986,6.578,3.039,2.57,5.4,5.67,5.4,9.817a9.776,9.776,0,0,1-1.248,4.774,11.869,11.869,0,0,1-20.294,0,9.776,9.776,0,0,1-1.247-4.774c0-4.147,2.375-7.227,5.4-9.816a1.637,1.637,0,0,1,1.255-.46c1.3.157,2.62.886,4.455.722-1.205-.161-3.311-.9-3.805-1.737a.583.583,0,0,1-.059-.562,8.222,8.222,0,0,0,1.141-4.542l.019-1.56c-.2-.049-.4-.1-.589-.167a5.623,5.623,0,0,1-.541-.206l-.028,1.91c-.05,2.569-.529,3.993-2.583,5.73-3.362,2.843-5.8,6.231-5.8,10.687,0,6.42,5.612,11.626,12.534,11.626s12.533-5.205,12.533-11.626c0-4.456-2.44-7.844-5.8-10.687C342.269,56.556,341.79,55.131,341.739,52.563Z" transform="translate(-325.057 -40.529)" fill-rule="evenodd" fill="url(#radial-gradient-6)"/>
  <path id="Path_2741" data-name="Path 2741" d="M350.975,55.9a10.2,10.2,0,0,0,1.9,3.834,40.094,40.094,0,0,0,3.153,3.608c-1.853-1.506-3.273-2.355-3.975-3.3a9.471,9.471,0,0,1-1.074-4.146Z" transform="translate(-335.308 -42.603)" fill-rule="evenodd" fill="url(#linear-gradient-4)" style="mix-blend-mode: screen;isolation: isolate"/>
  <path id="Path_2742" data-name="Path 2742" d="M343.835,50.544h2.989c0,4.108-1.338,7.439-2.989,7.439s-2.989-3.331-2.989-7.44Z" transform="translate(-331.302 -40.486)" fill-rule="evenodd" opacity="0.5" fill="url(#radial-gradient-7)" style="mix-blend-mode: screen;isolation: isolate"/>
  <path id="Path_2743" data-name="Path 2743" d="M343.025,50.359l1.419.076c-.083,2.671-.787,4.8-1.571,4.76s-1.351-2.241-1.268-4.912l1.42.076Z" transform="translate(-331.598 -40.383)" fill-rule="evenodd" opacity="0.5" fill="url(#radial-gradient-8)" style="mix-blend-mode: screen;isolation: isolate"/>
  <path id="Path_2744" data-name="Path 2744" d="M331.8,70.676a1.421,1.421,0,0,0-1.057,0c-1.06.682-1.589,2.793-1.671,3.95a7.934,7.934,0,0,0,2.807,7.055c.608.442,2.972.5,2.781.082a7.184,7.184,0,0,1-.98-3.3,11.617,11.617,0,0,1,.968-4.624c.595-1.436.5-1.752-.234-2.1a24.616,24.616,0,0,0-2.615-1.058Zm3.866-4.217c1.829.591,2.194,1.349,2.018,2.22-.332,1.643-2.143,2.012-3.83,1.364s-2.243-1.189-2.038-2.034c.305-1.256,2.022-2.142,3.849-1.551Z" transform="translate(-326.634 -46.706)" fill-rule="evenodd" fill="url(#radial-gradient-9)" style="mix-blend-mode: screen;isolation: isolate"/>
  <path id="Union_1" data-name="Union 1" d="M1.793,13.692C.293,12.276-.164,9.852.05,7.714A7.185,7.185,0,0,1,.881,4.98c.166-.249.315-.333.488-.327a10.7,10.7,0,0,1,2.1.911c.141.139.163.37-.059.907a13.9,13.9,0,0,0-1.129,5.023,7.067,7.067,0,0,0,.284,2.19c.073.25.034.37-.066.388a.255.255,0,0,1-.046,0A1.28,1.28,0,0,1,1.793,13.692ZM4.208,2.2C3.121,1.82,2.763,1.506,2.895,1.014a1.945,1.945,0,0,1,2.481-.9C6.554.454,6.789.9,6.676,1.4A1.357,1.357,0,0,1,5.2,2.375,3.057,3.057,0,0,1,4.208,2.2Z" transform="translate(3.012 20.142)" fill="url(#radial-gradient-10)" style="mix-blend-mode: screen;isolation: isolate"/>
  <path id="Path_2747" data-name="Path 2747" d="M343.127,50.569l.737.054c-.016,1.886-.358,3.391-.765,3.361s-.724-1.583-.708-3.469l.737.054Z" transform="translate(-331.912 -40.475)" fill-rule="evenodd" opacity="0.5" fill="url(#radial-gradient-11)" style="mix-blend-mode: screen;isolation: isolate"/>
  <path id="Path_2748" data-name="Path 2748" d="M347.236,52.595c0,.691-1.852.823-4.136.3s-4.136-1.516-4.135-2.207V50.66a12.744,12.744,0,0,0,8.271-.008v1.943Z" transform="translate(-330.558 -40.529)" fill="#7f8e99" fill-rule="evenodd" opacity="0.5" style="mix-blend-mode: multiply;isolation: isolate"/>
  <path id="Path_2749" data-name="Path 2749" d="M347.707,47.279c-.216,1.032-2.691,1.847-5.713,1.847s-5.5-.814-5.713-1.846a9.169,9.169,0,0,1,.135-3.217l5.578-.01h0l5.578.01a9.151,9.151,0,0,1,.135,3.216Zm-1.548-2.584L342,44.688l-4.167.007a5.465,5.465,0,0,0-.055.9c.006,2.725,8.432,2.725,8.439,0a5.462,5.462,0,0,0-.054-.9Z" transform="translate(-329.46 -37.919)" fill-rule="evenodd" fill="url(#radial-gradient-12)"/>
  <path id="Path_2750" data-name="Path 2750" d="M347.3,45.919a6.06,6.06,0,0,0-.063-1.047l-4.3-.008-4.3.008a6.038,6.038,0,0,0-.064,1.046c.006,2.922,8.72,2.922,8.728,0Z" transform="translate(-330.402 -38.24)" fill="#fff" fill-rule="evenodd" opacity="0.15"/>
  <path id="Path_2751" data-name="Path 2751" d="M346.869,46.449c-.109.589-1.628,1.057-3.486,1.057-1.792,0-3.269-.435-3.469-.994a13.257,13.257,0,0,1-.21-1.733h7.359c-.051.639-.112,1.234-.193,1.671Z" transform="translate(-330.85 -38.206)" fill="#8e633f" fill-rule="evenodd"/>
  <path id="Path_2752" data-name="Path 2752" d="M347.766,96.891c-2.919,2.04-8.545,2.286-11.424,0a15.524,15.524,0,0,0,11.424,0Z" transform="translate(-329.52 -58.816)" fill-rule="evenodd" fill="url(#linear-gradient-5)" style="mix-blend-mode: screen;isolation: isolate"/>
  <path id="Path_2753" data-name="Path 2753" d="M359.84,85.221a12.07,12.07,0,0,0,2.024-11.187c2.2,4.068,1.46,8.485-2.024,11.187Z" transform="translate(-338.814 -49.776)" fill="#fff" fill-rule="evenodd"/>
  <path id="Path_2754" data-name="Path 2754" d="M337.494,47.789c-.576-.671-.349-2.84-.225-3.721h-.853a9.169,9.169,0,0,0-.135,3.217c.2.955,2.336,1.723,5.047,1.832-1.312-.131-3.106-.483-3.833-1.33Z" transform="translate(-329.46 -37.925)" fill-rule="evenodd" fill="url(#radial-gradient-13)" style="mix-blend-mode: screen;isolation: isolate"/>
  <path id="Path_2755" data-name="Path 2755" d="M342.142,41.1c3.081,0,5.578.8,5.578,1.8s-2.5,1.8-5.578,1.8-5.578-.8-5.578-1.8,2.5-1.8,5.578-1.8Z" transform="translate(-329.608 -36.751)" fill-rule="evenodd" fill="url(#radial-gradient-14)"/>
  <path id="Path_2756" data-name="Path 2756" d="M346.805,45.04a9.715,9.715,0,0,1-4.8,1,14.693,14.693,0,0,1-2.047-.138.763.763,0,0,1-.959.635,1.257,1.257,0,0,1-.967-1.094c-.909-.337-1.466-.789-1.467-1.287a.828.828,0,0,1,.007-.1c.147.9,2.662,1.621,5.743,1.621a13.806,13.806,0,0,0,4.492-.64Z" transform="translate(-329.608 -37.921)" fill="#fff" fill-rule="evenodd"/>
  <path id="Path_2757" data-name="Path 2757" d="M346.8,40.316c-.117.632-1.745,1.133-3.737,1.133-1.922,0-3.5-.466-3.719-1.066a36.224,36.224,0,0,1-.45-5.465l8.358,1.546c-.137,1.318-.22,2.6-.452,3.852Z" transform="translate(-330.528 -34.306)" fill="#8e633f" fill-rule="evenodd"/>
  <path id="Path_2758" data-name="Path 2758" d="M346.723,39.788c-.108.565-1.611,1.013-3.451,1.013-1.774,0-3.235-.417-3.433-.954a30.531,30.531,0,0,1-.413-4.831l7.616,1.408c-.126,1.179-.105,2.241-.319,3.363Z" transform="translate(-330.739 -34.345)" fill-rule="evenodd" fill="url(#radial-gradient-15)" style="mix-blend-mode: screen;isolation: isolate"/>
  <path id="Path_2759" data-name="Path 2759" d="M343.391,36.031c0,2.62-.516,4.245-1.789,4.042s-1.809-2.327-1.809-4.947l3.6.9Z" transform="translate(-330.885 -34.388)" fill-rule="evenodd" fill="url(#radial-gradient-16)" style="mix-blend-mode: screen;isolation: isolate"/>
  <path id="Path_2760" data-name="Path 2760" d="M343.138,41.36a.822.822,0,0,1,1.073.349,1.094,1.094,0,0,1,0,1.22c-.248.275-.9-.035-1.247-.481s-.249-.942.174-1.089Z" transform="translate(-332.055 -36.826)" fill-rule="evenodd" fill="url(#linear-gradient-6)"/>
  <path id="Path_2761" data-name="Path 2761" d="M349.807,39.992a1.07,1.07,0,0,1,.323,1.3.989.989,0,0,1-1.142.413c-.326-.124-.384-.681-.191-1.126s.661-.765,1.01-.585Z" transform="translate(-334.403 -36.293)" fill-rule="evenodd" fill="url(#linear-gradient-7)"/>
  <path id="Path_2762" data-name="Path 2762" d="M343.051,34.329c-2.313-.314-4.189-.3-4.189.4,0,.36.489.831,1.29,1.257a1.127,1.127,0,0,0,.72,1.213,1,1,0,0,0,1.292-.459c.284.071.58.133.886.183,2.408.4,4.161.034,4.189-.767C347.239,35.46,345.364,34.643,343.051,34.329Z" transform="translate(-330.517 -33.996)" fill="#edcaa6" fill-rule="evenodd" opacity="0.25" style="mix-blend-mode: screen;isolation: isolate"/>
  <path id="Path_2763" data-name="Path 2763" d="M343.051,34.094c2.313.394,4.189,1.275,4.189,1.969s-1.875.935-4.189.541-4.189-1.275-4.189-1.968,1.875-.936,4.189-.542Z" transform="translate(-330.517 -33.905)" fill="#936e4e" fill-rule="evenodd"/>
  <path id="Path_2764" data-name="Path 2764" d="M342.44,34.15c1.9.324,3.444,1.049,3.444,1.619s-1.542.77-3.444.446S339,35.166,339,34.6s1.542-.77,3.444-.446Z" transform="translate(-330.57 -33.941)" fill-rule="evenodd" fill="url(#radial-gradient-17)" style="mix-blend-mode: screen;isolation: isolate"/>
  <path id="Path_2765" data-name="Path 2765" d="M342.1,34.342c.7.082,1.26.318,1.26.527s-.564.311-1.26.229-1.26-.318-1.26-.527.564-.311,1.26-.229Z" transform="translate(-331.3 -34.067)" fill-rule="evenodd" fill="url(#linear-gradient-8)"/>
  <path id="Path_2766" data-name="Path 2766" d="M345.878,36.456c.5.059.9.256.9.441s-.4.288-.9.23-.9-.256-.9-.441.4-.288.9-.23Z" transform="translate(-332.935 -34.908)" fill-rule="evenodd" fill="url(#linear-gradient-9)"/>
  <path id="Path_2767" data-name="Path 2767" d="M349.3,35.856c.569.089,1.031.334,1.031.545s-.462.311-1.031.221-1.031-.334-1.031-.545.462-.31,1.031-.221Z" transform="translate(-334.237 -34.664)" fill-rule="evenodd" fill="url(#linear-gradient-10)"/>
  <path id="Path_2768" data-name="Path 2768" d="M342.835,37.63a.778.778,0,0,1-1.061.292c-.5-.2-.756-.637-.63-.952s.69-.4,1.2-.219.651.556.494.88Z" transform="translate(-331.407 -34.994)" fill-rule="evenodd" fill="url(#linear-gradient-11)"/>
</svg>
